<svg xmlns="http://www.w3.org/2000/svg" viewBox="0 0 175.13 174.64"><defs><style>.cls-1{fill:#2e2e2e;}.cls-2{fill:#e5e5e4;}.cls-3{fill:#2b2b2b;}.cls-4{fill:#292929;}.cls-5{fill:#292928;}.cls-6{fill:#292a29;}.cls-7{fill:#2e2d2d;}.cls-8{fill:#2c2c2c;}.cls-9{fill:#313130;}.cls-10{fill:#313131;}.cls-11{fill:#2f2f2e;}.cls-12{fill:#2e2e2d;}.cls-13{fill:#393837;}.cls-14{fill:#333332;}.cls-15{fill:#2d2e2d;}.cls-16{fill:#393938;}.cls-17{fill:#313030;}.cls-18{fill:#30302f;}.cls-19{fill:#333;}.cls-20{fill:#2f302f;}.cls-21{fill:#373737;}.cls-22{fill:#2d2d2c;}.cls-23{fill:#2b2c2b;}.cls-24{fill:#2a2a2a;}.cls-25{fill:#323131;}.cls-26{fill:#2e2f2e;}.cls-27{fill:#2c2c2b;}.cls-28{fill:#2f2f2f;}.cls-29{fill:#353535;}.cls-30{fill:#2a2b2a;}.cls-31{fill:#343433;}.cls-32{fill:#222322;}.cls-33{fill:#343434;}.cls-34{fill:#363635;}.cls-35{fill:#272827;}.cls-36{fill:#323231;}.cls-37{fill:#3f403e;}.cls-38{fill:#353534;}.cls-39{fill:#363636;}.cls-40{fill:#303030;}.cls-41{fill:#323232;}.cls-42{fill:#282827;}.cls-43{fill:#3c3c3c;}.cls-44{fill:#3b3b3b;}.cls-45{fill:#393838;}.cls-46{fill:#373736;}.cls-47{fill:#383837;}.cls-48{fill:#3d3d3c;}.cls-49{fill:#323332;}.cls-50{fill:#3a3a39;}.cls-51{fill:#393a39;}.cls-52{fill:#5c5c5c;}.cls-53{fill:#464748;}.cls-54{fill:#2d2d2d;}.cls-55{fill:#403f3f;}.cls-56{fill:#747576;}.cls-57{fill:#c2c1c0;}.cls-58{fill:#3b3b3a;}.cls-59{fill:#6b6c6b;}.cls-60{fill:#4c4c4d;}.cls-61{fill:#454445;}.cls-62{fill:#d3d2d0;}.cls-63{fill:#383938;}.cls-64{fill:#424242;}.cls-65{fill:#454546;}.cls-66{fill:#c0bebe;}.cls-67{fill:#e8e7e7;}.cls-68{fill:#313231;}.cls-69{fill:#939393;}.cls-70{fill:#b1b0b1;}.cls-71{fill:#8b8b8b;}.cls-72{fill:#5d5e5e;}.cls-73{fill:#747475;}.cls-74{fill:#6a6969;}.cls-75{fill:#828383;}.cls-76{fill:#bab8b8;}.cls-77{fill:#bab9ba;}.cls-78{fill:#4b4b4b;}.cls-79{fill:#575756;}.cls-80{fill:#efeeee;}.cls-81{fill:#90908f;}.cls-82{fill:#302f2f;}.cls-83{fill:#2d2c2d;}.cls-84{fill:#919191;}.cls-85{fill:#636465;}.cls-86{fill:#626363;}.cls-87{fill:#6a6b6b;}.cls-88{fill:#3a3b3a;}.cls-89{fill:#aaabab;}.cls-90{fill:#707071;}.cls-91{fill:#989897;}.cls-92{fill:#636565;}.cls-93{fill:#5f605f;}.cls-94{fill:#474746;}.cls-95{fill:#3f3e3e;}.cls-96{fill:#6a6a6b;}.cls-97{fill:#434343;}.cls-98{fill:#929293;}.cls-99{fill:#565656;}.cls-100{fill:#454545;}.cls-101{fill:#4c4a4b;}.cls-102{fill:#6f6f70;}.cls-103{fill:#8a8a8a;}.cls-104{fill:#575656;}.cls-105{fill:#acacac;}.cls-106{fill:#919292;}.cls-107{fill:#7e7e7e;}.cls-108{fill:#696968;}.cls-109{fill:#c2c0c0;}.cls-110{fill:#545352;}.cls-111{fill:#393939;}.cls-112{fill:#8c8c8c;}.cls-113{fill:#a09f9f;}.cls-114{fill:#a7a7a6;}.cls-115{fill:#a5a5a5;}.cls-116{fill:#5e6060;}.cls-117{fill:#272726;}</style></defs><g id="Layer_2" data-name="Layer 2"><g id="Layer_1-2" data-name="Layer 1"><g id="Group_2" data-name="Group 2"><path id="Path_1" data-name="Path 1" class="cls-1" d="M83.79,1.19,82.91,9a6.7,6.7,0,0,1-5.18.05C73.58,5.56,73.34,3,76.89,0h1C79.65,1.41,82.08-.49,83.79,1.19Z"/><path id="Path_2" data-name="Path 2" class="cls-2" d="M83.79,1.19c-2-.34-4.26.83-5.9-1.19h6Z"/><path id="Path_3" data-name="Path 3" class="cls-3" d="M139.82,30c4.94.3,7.14,5,6.41,11-.45,3.74-1.52,7.66-.29,11.53.25,2.25,1.3,4.65-1.13,6.43L143.09,60c-2,1.36-3.79,3.22-6.54,2-1.38-.66-2.16-1.52-1-3,.33-1.44.11-3,1.08-4.3l-.08.12c1.91-2.4-.37-5.45,1.24-7.9l1.08-4c.52-1.71.14-3.55.81-5.24l0-.4A14,14,0,0,1,139.82,30Z"/><path id="Path_4" data-name="Path 4" class="cls-4" d="M19.45,133c-1.81-4.62.58-9.32-.31-14-.42-2.17,1.88-1,2.83-1.51,2.35-1.14,5-1.38,6.72,1.07s2.88,5.25,1.43,8.36c-.22.26-.48.58-.42.87,1.18,5.63-2.07,8.42-6.64,10.36a.52.52,0,0,1-.18.69c-1.81,1-2.14-.11-2.43-1.59S21.43,134,19.45,133Z"/><path id="Path_5" data-name="Path 5" class="cls-5" d="M51,148.79a21.49,21.49,0,0,1-.6-3.06c-.14-1.88-1.94-4.56,0-5.45a8.22,8.22,0,0,1,8.47.83c1.78,1.35,4.24,2.33,2.4,5.43A5.82,5.82,0,0,0,60.9,150c.66,5.35-4.25,6.49-7,9.13-1.21,1.16-3-.76-2.63-1.77C52.26,154.41,49.6,151.89,51,148.79Z"/><path id="Path_6" data-name="Path 6" class="cls-6" d="M137,111.7l.77-1.82a6.44,6.44,0,0,1,6-1.15C150,114,149,125.54,142.1,129.38a2.84,2.84,0,0,1-3.29,0c-.88-.74-2-1.64-1.25-2.91,1.42-2.39.4-5.07,1.17-7.51C137.66,116.63,138.11,114,137,111.7Z"/><path id="Path_7" data-name="Path 7" class="cls-7" d="M109.8,120.83a.93.93,0,0,0,.11-.84,36.25,36.25,0,0,0-1.07-7.1c-.14-4.15,3-4.22,5.79-4.46s3.59,1.84,4.27,4c2.66,8.29,1.56,11.24-5.3,15-3,1.64-4.29,1.06-4-2.42C109.1,123.58,108.67,122.16,109.8,120.83Z"/><path id="Path_8" data-name="Path 8" class="cls-3" d="M43.88,132.13c-1.6-.48-2,.34-1.85,1.73a2.62,2.62,0,0,1-2.86.62A3.6,3.6,0,0,1,37.46,133a3.29,3.29,0,0,1-.06-2.84c1.68-4-.21-7.15-2.23-10.31-1.89-6.46,3.18-5.23,6.35-5.42,4.08-.24,5.78,2.68,5.41,8.42C45.87,125.94,46.31,129.5,43.88,132.13Z"/><path id="Path_9" data-name="Path 9" class="cls-8" d="M146.87,88c4.46-.33,5.22,2.1,5.7,6.09.6,5,0,8.44-5.53,9.54-1,.2-2.43.68-2.47-.51-.14-4.43-2.87-8.7-.81-13.24C144.32,88.45,145.84,88.6,146.87,88Z"/><path id="Path_10" data-name="Path 10" class="cls-9" d="M114.87,96.5c-.67,3.33-3.16,5.68-6.13,7.47-1.47.89-3.34.8-2.41-1.79,1.52-4.23.81-8.5.41-12.73-.22-2.36.34-4.77,2.32-5.28,2.69-.71,4.08,1.79,4.64,4.11C114.3,90.84,114.46,93.5,114.87,96.5Z"/><path id="Path_11" data-name="Path 11" class="cls-1" d="M152.62,110c7.32,1.18,7.4,1.19,6.53,7.86-.44,3.39-1.32,6.72-1.78,10.1-.23,1.65-.44,2.83-2.49,2.79-2.24,0-3-1.43-2.85-3.21.3-4.14-1.4-8.43.94-12.42C153.9,113.54,153.31,112,152.62,110Z"/><path id="Path_12" data-name="Path 12" class="cls-10" d="M96.87,127.75c-.7,0-2.08.53-1.72-.73,1.12-3.91-.42-7.94.81-11.8.53-1.68-1.38-4.2.81-5,2.79-1.09,5.45,0,7.14,2.7a33.66,33.66,0,0,1,1.29,6.28,5,5,0,0,1-1.07,2.43C102.92,125.06,100.76,127.42,96.87,127.75Z"/><path id="Path_13" data-name="Path 13" class="cls-11" d="M74.92,145.85l-1,1.94a1.73,1.73,0,0,1-.49,1.87c-1.24,1.12-.61,2.74-1.09,4-.79,2.19-1.67,4.33-4.73,3.22-1.9-4.49.48-8.86.33-13.29-.08-2.1,1-4.74-2.09-6.27,3.75-1.36,7.4-4.4,9.92,1.37C74.42,141,76.69,143.66,74.92,145.85Z"/><path id="Path_14" data-name="Path 14" class="cls-8" d="M98.92,149.85c-1.11.79-.5,2.62-2,3.21-1.5,1.22-2.94,2.63-5.16,2-2-4,.92-7.92,0-11.9-.11-.53.6-1.25.49-1.79-.38-1.72-3.74-3.88,1-4.63,4-.64,6,.79,5.93,4.95a7.3,7.3,0,0,0,.46,1.91C98.78,145.6,100,147.86,98.92,149.85Z"/><path id="Path_15" data-name="Path 15" class="cls-12" d="M69,94.66a7.22,7.22,0,0,1,.75-1.79c1.26-1.62-1.91-4.93,1.83-5.37,2.91-.35,6.45-.61,7.81,2.71,1.21,3,1.72,6.31-1.06,9.17-2.11,2.17-4.24,4.08-7.37,4.49-1.35-2.89.17-6.1-1-9a2.17,2.17,0,0,0-.94-.3Z"/><path id="Path_16" data-name="Path 16" class="cls-13" d="M163.78,84.91c.18,3.23-2.43,4.08-4.49,3.83-2.55-.3-.86-2.91-1-4.39-.3-3,.2-6.12,0-9.16s.77-4.53,4.08-4.24,4.89,1.72,4.28,5.11c-.24,1.29-.58,2.57-.87,3.85C164.43,81.3,165.08,83.5,163.78,84.91Z"/><path id="Path_17" data-name="Path 17" class="cls-14" d="M31.47,52.46c-1.27-6.4.52-12.74-.31-19-.32-2.36,1.7-1.48,2.76-1.59,1.78-.19,3.89-.48,4.2,2.16a8.17,8.17,0,0,1-.18,3.93C35.87,42.75,38.42,49.64,31.47,52.46Z"/><path id="Path_18" data-name="Path 18" class="cls-15" d="M27.13,95.62c7.71.1,7.74.1,6.89,7.66a65.75,65.75,0,0,1-1.23,7.77c-.29,1.21,1.45,3.74-1.79,3.42-2.09-.21-3.8-.29-3.76-3.47C27.31,106,28.54,101,27.13,95.62Z"/><path id="Path_19" data-name="Path 19" class="cls-16" d="M18.94,95.84l-1-.15c-1.21-.46-1.87.85-2.92.9-2.84-3.18-2.64-8.46-1.1-10.18,2-2.29.17-3.28.42-4.75s-1.35-3.21.3-4.1a4.41,4.41,0,0,1,5.11.36C21,79,22,80.35,21.29,82.23a21,21,0,0,0-1.4,9.93C21.14,93.79,19.44,94.66,18.94,95.84Z"/><path id="Path_20" data-name="Path 20" class="cls-1" d="M37.21,153c.25-2.91.55-5.51.65-8.12.06-1.64-.34-3.17,2.28-3.13,2.3,0,5.4-.94,5.72,2.13.44,4.12-1.13,8.22-2.92,11.93-.46,1-2.73,2.51-4.24,1.72A3.68,3.68,0,0,1,37.21,153Z"/><path id="Path_21" data-name="Path 21" class="cls-17" d="M83.71,115.54l-1.28-9.2c5.53-.78,7,.15,7.42,5.43.2,2.37.77,4.93-.78,7.17-1.42,1.77-.4,3.84-.71,5.74,0,1.57.13,3.17-1.21,4.37a1.62,1.62,0,0,1-1.51.12.94.94,0,0,1-.56-.18c-2.54.21-2.13-1.71-1.62-2.84.91-2,.2-4,.41-6C84.22,118.58,83,117.09,83.71,115.54Z"/><path id="Path_22" data-name="Path 22" class="cls-10" d="M119.94,36.47c-.17,2.74-.33,5.48-.51,8.22s-2.34,3-4.21,3.3c-3,.44-1-1.85-1.36-2.91-1.28-4.31-.36-8.55-.13-12.88.19-3.55,2-2,3.25-2.27,2.07-.53,3.1.4,3,2.59C119.89,33.84,120,35.16,119.94,36.47Z"/><path id="Path_23" data-name="Path 23" class="cls-18" d="M42,101.8c4.07-1.79,1.33-5.49,2.14-8.21.65-2.21,1-4.6,3.5-4.2,2.27.37,3.27,3.62,2.92,5.21-.93,4.21-.75,8.62-2.63,12.71-1.18,2.56-3.41,2.18-4.87,2.2-2.14,0-1.06-2.21-1.07-3.57C42.54,104.57,43.42,103.18,42,101.8Z"/><path id="Path_24" data-name="Path 24" class="cls-8" d="M94.83,87.82c3.73,0,5.26,1.38,5.53,6.42.14,2.56,0,5.14.19,7.73a4.35,4.35,0,0,1-4,4.69h-.19c-2.47.06-4.31-1.63-3.57-4.67C93.38,97.26,93.34,92.43,94.83,87.82Z"/><path id="Path_25" data-name="Path 25" class="cls-19" d="M43.44,56.08c-4.69,4.44-.7,13.3-8.5,16.59-.93.4-1.89,1-2.68.22s.12-1.63.42-2.52C34,66.64,35.54,62.86,35.82,59c.22-3,2-4.23,3.75-5.51C41.77,51.92,42.73,53.49,43.44,56.08Z"/><path id="Path_26" data-name="Path 26" class="cls-20" d="M166.82,98.07c-.3,3.1-.23,6.56-3.55,8.79-1.34.91-2.73,1.78-3.93.4-.91-1-1.8-3.1-.75-4.07,2.89-2.65.66-6.09,1.88-8.94.48-1.11-1.85-3.42,1.55-3.28,2.12.09,4.06.27,4.43,2.89C166.62,95.17,166.68,96.5,166.82,98.07Z"/><path id="Path_27" data-name="Path 27" class="cls-21" d="M116.48,56.71c-.18,2.46-.29,4.93-.58,7.39a4.23,4.23,0,0,1-4.59,3.83,4.34,4.34,0,0,1-2-.71c-.62-.42-1.8-1.19-1-1.89,3.24-3,1.5-6.92,1.73-10.32.19-2.85,1-3.93,3.53-3.81s3.61,1.47,3.06,4a12.33,12.33,0,0,0-.15,1.49Z"/><path id="Path_28" data-name="Path 28" class="cls-22" d="M77.74,142.8a2,2,0,0,1,1.86-1.11c.9-.4.55-1.48,1.15-2,3.11-2.24,5.1-.43,6.25,2.17,2,4.58-2.48,12.93-8.9,11.91-.63-1.94-1.13-3.9-.23-5.9h0C79.42,146.11,76.71,144.5,77.74,142.8Z"/><path id="Path_29" data-name="Path 29" class="cls-23" d="M101.21,165.26c-1.25-4.79.71-6.9,4.87-7.34,1.78-.18,3.84-.83,5.13.92,1.54,2.09-.86,3.23-1.71,4.52-1.15,1.75-1.29,3.76-2.19,5.53-.63,1.23.64,3.56-2.26,3.48-2.52-.07-3.38-1.57-3.88-3.66A5.57,5.57,0,0,1,101.21,165.26Z"/><path id="Path_30" data-name="Path 30" class="cls-10" d="M138.83,82.8l-4,2.07c-.9-3.45-.58-6.9-.13-10.36a24.06,24.06,0,0,1,.11-3.89c.21-1.11-1.67-3.23.28-3.12,2.42.14,5-2.06,7.23.31.25.27-.24,1.23-.38,1.86,1.3,3.19-1.06,6.21-.43,9.36C141.51,80.92,141,82.45,138.83,82.8Z"/><path id="Path_31" data-name="Path 31" class="cls-24" d="M15,121.7a20.7,20.7,0,0,1-.07,4.45,3,3,0,0,1-3,2.72,2.84,2.84,0,0,1-3.13-2.53h0c-.68-3.23-1.25-6.48-2-9.7-.63-2.79,2-2.57,3-2.62,1.55-.08,4.24-1.63,4.67,1.76.26,2,.53,3.93.79,5.9Z"/><path id="Path_32" data-name="Path 32" class="cls-25" d="M58.45,45.78c1.14-3.22-.5-6.9.47-10.4.37-1.34-1.09-3.77,1.44-4a4.94,4.94,0,0,1,5.18,3.09c1.17,2.8-1.28,11.66-3.66,13.54-1,.76-1.83,1.53-3.05.78S58.47,47,58.45,45.78Z"/><path id="Path_33" data-name="Path 33" class="cls-12" d="M150.91,63.86c-.28-4.3,1.18-8.57-.09-12.91-.67-2.29,1.36-1.68,2.5-1.67,3,0,5.93.67,5.74,4.44a17.92,17.92,0,0,1-3.32,10.17A4.66,4.66,0,0,1,150.91,63.86Z"/><path id="Path_34" data-name="Path 34" class="cls-3" d="M112.64,148.05a14,14,0,0,1,1.82-10.58c.62-.94.66-3.06,3-2.1,1.6.66,2.65,1.63,2.44,3.25-.44,3.4-.86,6.76-1,10.2-.09,1.82-1.25,4.3-4.2,3.66C112,151.88,112.5,149.86,112.64,148.05Z"/><path id="Path_35" data-name="Path 35" class="cls-5" d="M11.94,65.9c0,1.65.32,3.38-.1,4.9-.32,1.19-.42,3.37-2.39,3.1-1.64-.23-3.34-.69-3.84-3.08-.81-3.86-.09-7.5.71-11.17a3,3,0,0,1,3.34-2.37c1.65.15,2.37,1.47,2.37,3.21s.2,3.6.32,5.4Z"/><path id="Path_36" data-name="Path 36" class="cls-26" d="M97.67,165.11c-.59,2.74-1.17,5.31-1.69,7.89-.22,1.14-.7,1.95-2,1.52s-2.9-.39-3.45-2.29c-.92-3.15-.6-6.58-2.27-9.55-.16-.29,0-1.16.23-1.21a11.49,11.49,0,0,1,6.82,0C97,162.08,98.27,163.19,97.67,165.11Z"/><path id="Path_37" data-name="Path 37" class="cls-27" d="M73.56,166.2c-1-2.68-.07-4.25,3.29-4.07,3.78.2,6,1.93,5.3,5.91-.42,2.31,1.62,6.1-2.73,6.5C75.25,174.93,73.7,172.54,73.56,166.2Z"/><path id="Path_38" data-name="Path 38" class="cls-6" d="M56.85,100.91l-1.07-2c-1.12-2.33.25-4.89-.7-7.23l.66-.88c2.46-2.7-.27-5.88.78-8.7,2.63-3.07,5.56-.69,8.37-.47.6,1,0,1.75-.49,2.53-.28,2.63-2.12,5.57,1.52,7.39a2.59,2.59,0,0,1,.58,1.2c-.15,1.75.9,3.63-.56,5.23l.75,1.87c-1.39,1.23-2.8,1.94-4.29.14-1.65-1.86-.14-4.93-2.59-6.71-2.53,2.16-.43,5.32-1.72,7.64A1,1,0,0,1,56.85,100.91Z"/><path id="Path_39" data-name="Path 39" class="cls-12" d="M168,56.19c0,3.38-1.3,6.43,0,9.74.87,2.23-1.3,4-3.17,3.78-2.09-.27-4.56-1.85-3.8-4.63A74.64,74.64,0,0,0,162.72,56c.24-1.59-1.41-4.39,2.27-4.16C168.06,52,168.17,54.11,168,56.19Z"/><path id="Path_40" data-name="Path 40" class="cls-28" d="M77.91,13.08c2.38-.84,4.82.39,6.47,1.25,3.6,1.88-.31,4.36-.47,6.65-1.38,1.68-2.08,3.74-3.14,5.61-.55,1-.77,2.41-2.2,2.39-1.68,0-1.75-1.74-2.38-2.8a4.22,4.22,0,0,1-.39-4.25c1-1.91.64-3.84.31-5.8A2.68,2.68,0,0,1,77.91,13.08Z"/><path id="Path_41" data-name="Path 41" class="cls-29" d="M34.11,76.71c2.89.51,4.63,1.71,3.27,5a25,25,0,0,0-1.89,6.55c-.34,2.72-2.89,3.13-5.16,3.52-.08-1.7-1.5-3-.67-5.09a12.56,12.56,0,0,0,1-6.54C30.11,76.83,32.28,77.19,34.11,76.71Z"/><path id="Path_42" data-name="Path 42" class="cls-10" d="M18.82,56.51c1.33-2.41,3.17-2.37,5.27-1.12.88,2.79-.28,5.75.76,8.53-.86,1.41.14,2.68.36,4,.48,2.8-1.18,3.82-3.37,3.67s-4.05-1.29-3-4.16A35,35,0,0,1,18.82,56.51Z"/><path id="Path_43" data-name="Path 43" class="cls-30" d="M143.72,149.78c-1.4-.36-1.49-1.18-1.43-2.58.13-3.36,1.54-6.68.27-10.11a1.73,1.73,0,0,1,1.21-2.12,1.55,1.55,0,0,1,.31-.06c1.79-.36,3.66-.48,5.16.9,1.29,1.19,2.12,2.66,1.27,4.43-1.2,2.51-2.53,5-3.81,7.45C146.07,148.89,144.7,149.06,143.72,149.78Z"/><path id="Path_44" data-name="Path 44" class="cls-31" d="M44.21,79.59c.74-1.23-.26-2.72-.1-2.89,1.24-1.26-2.92-3.23.4-3.77,2.25-.36,5-1.47,6.55,1.63,1.71,3.53.82,6.79-1.37,9.7-.9,1.18-3.06,1.87-4,1.1C44,83.94,44.59,81.44,44.21,79.59Z"/><path id="Path_45" data-name="Path 45" class="cls-11" d="M63.93,21.42c.51-2.61,1.08-5.51,1.63-8.41.3-1.6.29-3.76,2.81-2.75,1.93.78,4.22,2,2.7,4.73a12.93,12.93,0,0,0-1.19,7.19c.1,1.94.31,3.62-2.68,3.25C64.75,25.13,63.52,24.28,63.93,21.42Z"/><path id="Path_46" data-name="Path 46" class="cls-32" d="M57.91,100.89c-.23-1.88-1.2-3.58-.43-5.72.47-1.3-.84-3.4,1.83-3.44,2.51,0,3.31,2,3.35,3.84a41.69,41.69,0,0,0,.24,4.32c1.46,2.6.41,5.18,0,7.76-1.13,1-2.27,2-4,1.18C56,106.51,57.51,103.63,57.91,100.89Z"/><path id="Path_47" data-name="Path 47" class="cls-33" d="M15.09,99.55c3.37.2,6.48.87,5.8,5.28s-4,6.76-8,5.27c-2.88-1.1-1.48-3.91-1.25-6.1a2.06,2.06,0,0,1,.07-2.19,1.2,1.2,0,0,0,.07-.91C12.47,99.37,13.72,99.32,15.09,99.55Z"/><path id="Path_48" data-name="Path 48" class="cls-34" d="M93.1,37.91c.09-2.46-.32-4.18.56-5.69,1-1.74,2.83-1.4,4.38-1.34s2.12,1.46,2,2.86c-.11,2.15-.52,4.28-.57,6.42-.06,2.38-1.43,4-3.44,4.12-2.85.23-2.58-2.3-2.71-4.25C93.29,39.05,93.12,38.08,93.1,37.91Z"/><path id="Path_49" data-name="Path 49" class="cls-35" d="M69.9,125.88l-.27.17-.32,0c-1.52.56-2.67.25-3.24-1.39a17,17,0,0,1-.15-3c1.24-2.33-1.46-4.72.1-7,.52-1.23,2-.86,2.79-1.71l4.1.13c4.63,2.45,2.74,5.84,1.33,9.16C73.68,124.41,71.48,124.79,69.9,125.88Z"/><path id="Path_50" data-name="Path 50" class="cls-36" d="M127.37,149.81c-3.59-.91-3.73-3.55-3.4-6.33a15.94,15.94,0,0,1,1-4.77c.61-1.34-1.16-4.92,2.67-3.59,2.27.78,4.71,1.73,3.62,5.31A58.19,58.19,0,0,1,127.37,149.81Z"/><path id="Path_51" data-name="Path 51" class="cls-29" d="M78.89,79.93c-1.2,1.27-2.36,3.36-4.16,2.82s-.49-2.88-.91-4.24c-1-3.18,0-5.88.74-8.87.55-2.13.66-4,3.27-3.76,3,.35,1.32,2.69,1.43,4.23A6.54,6.54,0,0,1,79,71.56C79.46,74.36,79.76,77.15,78.89,79.93Z"/><path id="Path_52" data-name="Path 52" class="cls-10" d="M107.93,145.07a18.85,18.85,0,0,1,0,2.91c-.34,2.63-2.12,4.29-4.54,4.08-2.63-.22-1.3-2.77-1.51-4.33a14.08,14.08,0,0,1,.16-2.9,20.32,20.32,0,0,0,1.58-7.92c1.08-2.71,2-3.1,3.56-1.23.92,1.14,2,2.44,1.57,4.18C107.72,141.47,108.89,143.44,107.93,145.07Z"/><path id="Path_53" data-name="Path 53" class="cls-37" d="M88.94,46c.62,1.35-1.81,4,2.1,4,1.94,0,2.23,2.08,1.2,3.87a12.12,12.12,0,0,0-1.36,9.06c-.49,1.43-1.94,1.32-3,1.86C85,64.15,84.66,63,86.75,60.17c-.62-1.76,1.17-3.5,0-5.26,1.79-1.95-.19-4.72-.68-5-4.15-2.69-1.6-6.07-1.4-9.18C86.65,42,85.31,46,88.94,46Z"/><path id="Path_54" data-name="Path 54" class="cls-36" d="M128.82,130.63c-2,2-3.7,1.69-4-1.16-.2-1.84-.77-4,.6-5.73,1.44-1.52-1.25-3.38.4-4.89.05-1.61,0-3.22.15-4.83.25-3.41,1.53-4.07,3.94-1.38a36.68,36.68,0,0,1,0,12.28v0C128.46,126.6,130.11,128.89,128.82,130.63Z"/><path id="Path_55" data-name="Path 55" class="cls-36" d="M20.32,37.57c.57-1.46-2.36-4.86,2.54-4.78,4.31.08,4.18,2.79,4,5.7a6.23,6.23,0,0,1-.75,2.84c-1,1.64.18,5.06-2.81,4.92-3.59-.17-2.48-3.61-2.92-5.85A16.72,16.72,0,0,1,20.32,37.57Z"/><path id="Path_56" data-name="Path 56" class="cls-14" d="M119.88,21.72c.4-3.37,1.94-6.15,2.9-9.12.53-1.64,1.49-.9,2.23-.57,1.55.69,3.16,1.79,2.76,3.66A81.42,81.42,0,0,1,125,24.58c-.38,1.12-1.1,2.16-2.55,1.79C119.91,25.7,120.54,23.29,119.88,21.72Z"/><path id="Path_57" data-name="Path 57" class="cls-3" d="M99.87,65.87c3.52.92,5.72,2.5,3.28,6.47-.82,1.33.78,2.33.61,3.59-.88,2,.09,4.49-1.71,6.22l0-.05c-2.25,1.11-2.42-1.21-3.45-2.1l-1.75-1.21C97.4,74.37,96.06,69.53,99.87,65.87Z"/><path id="Path_58" data-name="Path 58" class="cls-38" d="M113,23.86c-.9-.55-3.39.13-2.44-3a8.12,8.12,0,0,0-.42-5.43c-1.33-2.72.22-5,1.82-5.37,3-.75,4.49,2.13,4.64,4.54.18,2.78-2,5.36-1.28,8.45C115.51,23.77,114.38,24.21,113,23.86Z"/><path id="Path_59" data-name="Path 59" class="cls-19" d="M130.79,55.66c-1.71,2.17,1.93,8.14-3.77,7.74-4.9-.33-1.63-5.27-2.32-8.06-.5-2-1.6-4.67,2.47-4.55C130.29,50.89,131.21,52.45,130.79,55.66Z"/><path id="Path_60" data-name="Path 60" class="cls-19" d="M131.29,20.63a9.88,9.88,0,0,1,.2-2.92c.45-1.17-.75-3.61,1.66-3.29,1.89.25,4.51.34,4.65,3.43a17.68,17.68,0,0,1-1.08,6.8c-.49,1.35-.93,2.85-3.07,2.44s-2.74-1.59-2.57-3.5c.09-1,.21-2,.32-2.95Z"/><path id="Path_61" data-name="Path 61" class="cls-16" d="M108.94,43.51c.72,2.75-1.06,3.53-3.16,3.59-3.64.1-.35-2.22-1-3.35s-1.62-2.62.11-3.82c1-1.55-.17-3.51.89-5.07-1-1.4-1.68-2.95-.42-4.41,1-1.21,2.43-.49,3.55.13a3,3,0,0,1,1.52,4,.52.52,0,0,1-.06.13,23.64,23.64,0,0,0-.7,3.3C108.89,39.75,109.72,41.74,108.94,43.51Z"/><path id="Path_62" data-name="Path 62" class="cls-28" d="M126.17,39.4c.2-1.59.32-3.24.63-4.84.21-1.13-1.42-3,.71-3.26,1.64-.22,3,.86,3.43,2.85.53,2.69,1.95,5.28,1.41,8.08-.37,1.89-.92,3.89-3.7,3.76s-1.59-2.37-2.09-3.66A12.09,12.09,0,0,1,126.17,39.4Z"/><path id="Path_63" data-name="Path 63" class="cls-23" d="M64.89,81.91c-2.64,1.66-5.27-1.08-7.91,0-.72-1,.37-1.56.6-2.33a20.31,20.31,0,0,1,.93-5.24c.9-4,4.21-5.28,8.46-3.42.88,1.61-1.14,2.53-1,4C64,77,66.16,79.72,64.89,81.91Z"/><path id="Path_64" data-name="Path 64" class="cls-8" d="M61.55,161.55c4.08,0,6.9.3,6.22,3.9-.46,2.43,1,6.41-2.91,6.84-3.3.37-4.49-2.4-3.81-5.4C61.46,165.07,59.19,162.14,61.55,161.55Z"/><path id="Path_65" data-name="Path 65" class="cls-28" d="M41.92,31.94c7.22-.49,4.57,5,5.16,8.52.46,2.32,1.07,4.7-2.17,5.58-.87.67-1.82,2-2.85.65-.64-.86-1.86-2.19-.28-3.46C41.52,39.47,41,35.7,41.92,31.94Z"/><path id="Path_66" data-name="Path 66" class="cls-20" d="M139.23,142.45c-.49,3.91-1,9.21-4.06,8.74-3.81-.58-.76-5.47-1.13-8.45a6.29,6.29,0,0,1,.7-2.82c.52-1.3-1.37-3.78,1.43-3.82,2.27,0,2.53,2.2,2.83,4C139.15,141.07,139.2,142.05,139.23,142.45Z"/><path id="Path_67" data-name="Path 67" class="cls-14" d="M132.2,158.23c1.09,2.61-.36,4.22-2.41,5.62-.87.59-1.69,1-2.69.41-4.53-2.74.78-6.43-.78-9.77-.41-.88,3.23-1.12,5-.54C133.49,154.69,132.47,156.59,132.2,158.23Z"/><path id="Path_68" data-name="Path 68" class="cls-39" d="M48.84,59.76l.4-.89c.14-1.71-.07-3.46.6-5.1,4.12-1.09,4.94-.51,4.23,3.09-.34,1.71-.83,3.4-1.26,5.09-.89,1.73,0,3.69-.73,5.44-1.58,2-3.29.57-5,.2l.78-1.66C48.39,63.9,48.07,61.74,48.84,59.76Z"/><path id="Path_69" data-name="Path 69" class="cls-28" d="M114.14,166.37a13.92,13.92,0,0,0,1.47-6.3c0-1.56,1.83-.69,2.87-.54,1.68.24,2.79,1.11,2.44,3-.3,1.6-.83,3.15-1.1,4.75s.67,3.87-2.09,3.35C115.79,170.25,113.24,169.6,114.14,166.37Z"/><path id="Path_70" data-name="Path 70" class="cls-40" d="M99,25.91A.85.85,0,0,1,99,25c1-3.38-.21-6.89.67-10.27-.4-1.51-1-2.94,1-4.05.93-.55,2.24-1.06,2.63-.52A6.16,6.16,0,0,1,104.8,15c-.63,3-1.36,6-2,8.92C101.79,25.13,101.26,27.18,99,25.91Z"/><path id="Path_71" data-name="Path 71" class="cls-36" d="M132.62,99c-1.38-2.4-1-4.95-.52-7.44.3-1.75,1.32-3.17,3.27-3.07,1.69.08,2.51,1.25,2.61,3a39.79,39.79,0,0,0,.7,4.35c-.07,2.23-2.53,2.24-3.43,3.7A2.78,2.78,0,0,1,132.62,99Z"/><path id="Path_72" data-name="Path 72" class="cls-41" d="M84.79,93.78a38.8,38.8,0,0,1-.1-5.39c.13-1.18-1.64-2.84.26-3.42a7.67,7.67,0,0,1,4.8.38c1.66.7,1.2,2.42.78,3.93-.62,2.18-1.1,4.41-1.64,6.62C86.55,97.08,84.94,96.84,84.79,93.78Z"/><path id="Path_73" data-name="Path 73" class="cls-18" d="M151,68.06c6.74,1.72.66,6.14,1.82,9.13.5,1.31-1.89,2.34-2.12,4.19-.15,1.2-2.31.92-3,.41-1.37-1.06.05-2.55.08-3.87.87-2.85-.1-6,1.21-8.76A6.21,6.21,0,0,1,151,68.06Z"/><path id="Path_74" data-name="Path 74" class="cls-42" d="M88.94,46c-2.33,1.55-4.51,2.88-4-1.86a17.58,17.58,0,0,0-.24-3.4c1.1-2.12-1-4.78,1.15-6.73,1.17-.83,2.24-2.05,3.89-1,0,3.41,1.69,6.94-.75,10.17-.68-.43-.58-1.18-.71-1.9-.32.92.26,1.37.76,1.84Z"/><path id="Path_75" data-name="Path 75" class="cls-38" d="M100.86,50c4-1.2,3.17,2.7,4.1,4.34s.59,3.77-.19,5.63c-1.5,1-2.94,2.22-4.88,1-2-2.31.16-5.26-1.17-7.68C98.13,51.31,99.88,50.88,100.86,50Z"/><path id="Path_76" data-name="Path 76" class="cls-19" d="M174.33,76.5c-.11,2.08-.27,4.52-.35,7a3.27,3.27,0,0,1-2.8,3c-1.79,0-1.07-2-1.17-3.16-.22-2.48-.11-5-.09-7.47,0-1.94,1.34-2.66,3-2.55S175,74.63,174.33,76.5Z"/><path id="Path_77" data-name="Path 77" class="cls-38" d="M157.24,39.24a14.91,14.91,0,0,1-.05,3.47c-.54,1.91-2.2,2.5-3.94,2.34-2-.19-1.36-2-1.38-3.18,0-1.77.82-3.47.48-5.37-.14-.82-1.43-2.42.64-2.73a3.43,3.43,0,0,1,3.84,1.67A5.44,5.44,0,0,1,157.24,39.24Z"/><path id="Path_78" data-name="Path 78" class="cls-43" d="M61.82,64.9c-.16-3.4-.08-6.83-.56-10.18-.28-2-.2-3.45,1.91-3.55,2.48-.12,3.61,1.24,2.6,3.79a12.66,12.66,0,0,0,0,7c.41,1.15,1.06,2.34-.52,3.16C64.11,65.41,62.93,65.77,61.82,64.9Z"/><path id="Path_79" data-name="Path 79" class="cls-44" d="M51.78,44.71c-1-4.16.51-8.22.51-12.34,0-1.26.73-1.69,1.92-1.64,1.66.07,1.85,1.14,1.63,2.39C54.93,38.43,54,43.72,53,49,49.93,48.36,51.9,46.24,51.78,44.71Z"/><path id="Path_80" data-name="Path 80" class="cls-8" d="M165.77,112.9c1.76.66,2.87-3.17,4.63-.88,1.4,1.81.38,3.66-.94,5.34a32.88,32.88,0,0,0-2.2,3.82c-.54.92-.52,2.71-2,2.37-1.79-.43-1.83-2.08-1.41-3.65.89-1.68.25-3.49.46-5.23C164.42,113.77,164.21,112.6,165.77,112.9Z"/><path id="Path_81" data-name="Path 81" class="cls-45" d="M88.88,12.18c2.85-.68,5.07-1.45,3.9,3.4-.53,2.19-2.25,5-.28,7.83C92.92,24,91,26.22,89,26c-2.17-.26-2.08-1.53-1.1-3C89.21,19.46,87.55,15.69,88.88,12.18Z"/><path id="Path_82" data-name="Path 82" class="cls-46" d="M56.55,119.85c-.32-1.55-.65-3.1-1-4.62,1.82-.84,3.61-.46,5.38-.39,1.42.54,1.2,2.1,1.91,3.09-.3,1.65-1.43,3.13-1.09,4.92a2.3,2.3,0,0,1-1,1.69c-1.12.69-2.08,1.74-3.57,1.57C55.46,124.2,57,121.91,56.55,119.85Z"/><path id="Path_83" data-name="Path 83" class="cls-15" d="M75.74,56.63a19,19,0,0,0,0-6.94c-.19-.95-.43-2.17.67-2.57a3.13,3.13,0,0,1,3.23.26A2,2,0,0,1,80,50.06c-2.1,2-.06,3.88,0,5.79a4.3,4.3,0,0,1,.33,3.28,3.2,3.2,0,0,1-3.45,2.76c-2.27-.16-1.12-2.17-1.38-3.38A3.2,3.2,0,0,1,75.74,56.63Z"/><path id="Path_84" data-name="Path 84" class="cls-47" d="M88.56,1.8c3-.12,4.87,1.17,5,4.23.12,2.55-1.8,3.62-3.82,3.52-3.9-.2-3.14-4.06-3.93-6.33C85.12,1.19,87.63,2.26,88.56,1.8Z"/><path id="Path_85" data-name="Path 85" class="cls-34" d="M46.92,17c0-.81-.08-1.62-1-2.05-.76-.93-.94-1.84.07-2.72,2.34-.51,4.84-.85,6.43,1.28S52,17.32,50.94,19.1c-1.1,1.95-2,4-3,6a2,2,0,0,1-1.4-1.95c0-.84.1-1.67.18-2.51A26.74,26.74,0,0,0,46.92,17Z"/><path id="Path_86" data-name="Path 86" class="cls-47" d="M41.11,22c.14,2.38.62,4.11.2,5.58C41,28.8,39.24,28,38.2,28a2.11,2.11,0,0,1-2.13-2.1,1.64,1.64,0,0,1,.09-.62c.71-2-.3-4.32,1.6-6,.71-.63-1.37-2.87,1.28-2.73,2.06.1,2.19,1.59,2.09,3.21C41.06,20.8,41.11,21.79,41.11,22Z"/><path id="Path_87" data-name="Path 87" class="cls-48" d="M69.05,40.19c1.24-1.6-1.81-5.37,2-5.33,4,0,2.06,3.57,1.93,5.82a1.53,1.53,0,0,1-.11.48C72,43,74,47,70.83,46.7S69.75,42.57,69.05,40.19Z"/><path id="Path_88" data-name="Path 88" class="cls-49" d="M76.92,16.14c.5,4-1.86,8.4,1.7,12.11,2.64-1.74,2.21-5.83,5.29-7.28L79.62,32.79c-1.87,1.33-3.18.58-3.6-1.36-.46-2.18-1.89-4.2-1.28-6.58-.36-2.62,1.73-4.94.93-7.61C75.37,16.05,75.79,15.69,76.92,16.14Z"/><path id="Path_89" data-name="Path 89" class="cls-46" d="M90.14,76c0,2,.07,4-2.11,4.16-2.48.15-3.06-2.24-2.59-3.85.74-2.52-1.16-7.11,2.26-7.17C90.45,69.05,89.34,73.73,90.14,76Z"/><path id="Path_90" data-name="Path 90" class="cls-50" d="M111.53,75.59a4.59,4.59,0,0,1,.4-4.24,2.6,2.6,0,0,1,2.94-1.3c1.34.36.9,1.53.83,2.44-.18,2.1-.37,4.21-.68,6.3-.2,1.28-.52,2.92-2.14,2.85-2-.09-1-2-1.3-3.12A12.49,12.49,0,0,1,111.53,75.59Z"/><path id="Path_91" data-name="Path 91" class="cls-42" d="M.79,88.87a6.69,6.69,0,0,1-.71-4.16c.17-2.23-.67-5.48,2-5.63C5,78.92,6.1,81.93,5.84,84.92,4.94,86.16,6,87.81,5,89a2.71,2.71,0,0,1-1.18.33C2.78,89.3,1.69,89.62.79,88.87Z"/><path id="Path_92" data-name="Path 92" class="cls-10" d="M120.69,91.48l-.06-.16c0-3,1.87-1.74,3.32-1.5l0,0c1.38,3.58-1.11,7.8,1.88,11.1-.47,4-2,4.73-5.68,2.63-.06,0,0-.31,0-.43a1.93,1.93,0,0,1,.37-.3C122.78,99.05,119.5,95.23,120.69,91.48Z"/><path id="Path_93" data-name="Path 93" class="cls-51" d="M57.91,125.83a3,3,0,0,1,2.84-2,1.73,1.73,0,0,1,.7,1.93c.2,1.43-1.76,2.64-.44,4.19-.72,1.64,1,4.18-1.19,5.08-2.68,1.08-4.27-.89-3.48-3.83a31.62,31.62,0,0,0,.54-3.33C56,126.6,57.86,126.67,57.91,125.83Z"/><path id="Path_94" data-name="Path 94" class="cls-21" d="M171.08,106.51c-1-4.3-.6-8.12-.11-11.88a2.73,2.73,0,0,1,3-2.47l.19,0c1.72.49.74,2.19.41,3.34C173.55,99,173.89,102.93,171.08,106.51Z"/><path id="Path_95" data-name="Path 95" class="cls-14" d="M121.79,71.91c-1.08-2.94.48-4.59,3.07-4.71s2,2.41,2.09,4c0,1.23,1,2.5,0,3.72-.54.42-.75,1.17-1.44,1.44a2.58,2.58,0,0,1-2.94-1.26C122.07,74.11,122.32,72.92,121.79,71.91Z"/><path id="Path_96" data-name="Path 96" class="cls-10" d="M56.08,166.22c-.54,1.92-1.68,2.42-3.12,2.05-2.2-.57-4.71-1-5-3.91a2.11,2.11,0,0,1,2.77-2.49C53.23,162.44,54.31,164.88,56.08,166.22Z"/><path id="Path_97" data-name="Path 97" class="cls-43" d="M5.92,102.45c-.41,2.1,0,4.72-1.89,4.92-2.38.24-2.13-2.31-2.22-4.07a1.79,1.79,0,0,1,.08-1c1.16-1.67-2.47-4.82.77-5.15C6.08,96.84,4.57,101,5.92,102.45Z"/><path id="Path_98" data-name="Path 98" class="cls-48" d="M33.24,149.48c-.28,1.69-.12,3.28-2.11,3.14-3.62-.25-2.89-3.31-3.33-5.5-.41-2,.92-2.62,2.66-2.58C34.68,144.65,30.94,148.76,33.24,149.48Z"/><path id="Path_99" data-name="Path 99" class="cls-33" d="M67,70.93c-3.9-.36-7.72-.77-7.39,5.17.07,1.24-1.08,2.54-1.67,3.82a.71.71,0,0,1-1,.21.72.72,0,0,1-.25-.3c-.44-7.9,1.48-10.43,8.13-10.8C66.2,69,67.12,69.31,67,70.93Z"/><path id="Path_100" data-name="Path 100" class="cls-52" d="M84.79,93.78c.74,1.92,2.25,2.35,4.1,2.12.32,3.44-.18,6.43-4.7,7.89C85.25,100.21,83.19,97,84.79,93.78Z"/><path id="Path_101" data-name="Path 101" class="cls-53" d="M35.17,119.86c4.34,2.13,5.35,6,2.61,10a.61.61,0,0,1-.85.06l-.08-.09C36.71,126.46,33.84,123.52,35.17,119.86Z"/><path id="Path_102" data-name="Path 102" class="cls-9" d="M23.06,138.15c3.56-3,6.34-6.46,7.06-11.23.12.8.26,1.59.36,2.39C31.36,136.12,29.77,138,23.06,138.15Z"/><path id="Path_103" data-name="Path 103" class="cls-14" d="M67.66,156.92c3-.51,4.23-2.39,3.6-5.27-.35-1.6-.24-2.59,1.57-2.83a2.82,2.82,0,0,1,1.12,2c.24,1,1.51,1.22,1.79,2.22C73.24,158.32,72.12,158.85,67.66,156.92Z"/><path id="Path_104" data-name="Path 104" class="cls-54" d="M141.52,155.6a5.69,5.69,0,0,1-4.1,3.22c-1.31.19-2.66-.44-2.27-2.34s1.06-3.14,3.28-2.74C139.7,154,141.14,153.8,141.52,155.6Z"/><path id="Path_105" data-name="Path 105" class="cls-9" d="M137.77,103.92a7.18,7.18,0,0,1-3.32,4c-.79.41-1.56,1.77-2.38.6-.3-.43-1.93-1.68-.21-2.64,1-1.28.89-3,1.78-4.38v-.34c-.46-1.45.52-1.61,1.55-1.74C137.35,100.18,136.22,102.82,137.77,103.92Z"/><path id="Path_106" data-name="Path 106" class="cls-55" d="M75.74,56.63,76.13,61c3.28-.4,3.84-2.58,3.8-5.19,1.86,6.49,1.4,7.34-3.35,7.31-1.34,0-2.1.59-1.6-1.42C75.4,60.09,74.32,58.18,75.74,56.63Z"/><path id="Path_107" data-name="Path 107" class="cls-33" d="M64.89,81.91c.2-2.36-2.73-5.23,1.12-7q.42,7.45.83,14.9a.93.93,0,0,1-1.18.3c-1.39-1.83-1.37-4.08-1.79-6.19Z"/><path id="Path_108" data-name="Path 108" class="cls-1" d="M152.85,139.74c.16-1.51.24-3.05,2.41-2.91,2,.13,1.87,1.51,1.68,2.84-.24,1.6-.27,3.55-2.72,3.2C152.24,142.6,153,140.93,152.85,139.74Z"/><path id="Path_109" data-name="Path 109" class="cls-33" d="M122.81,74.92l2.88,1c1.37,2.26-1.37,4-.74,6.19-.08,1.57-.57,3.27-2.4,2.63s-.49-2.5-.6-3.82C123,79,121.66,76.79,122.81,74.92Z"/><path id="Path_110" data-name="Path 110" class="cls-56" d="M74.74,24.85c1,2.1,2.79,3.81,2.41,6.53-.24,1.73,1.44,1.27,2.48,1.41-2.1,2.35-3.71,1.38-4.81-.92A7.6,7.6,0,0,1,74.74,24.85Z"/><path id="Path_111" data-name="Path 111" class="cls-57" d="M75.81,113.91a21.49,21.49,0,0,1,2.49,9.9c0,1.57-.89,1.94-2.14,2.06l-.7-.48a6.45,6.45,0,0,1-.58-4.92C75.72,118.36,75,116,75.81,113.91Z"/><path id="Path_112" data-name="Path 112" class="cls-58" d="M100.72,2.66c1.61.47,4-.3,4.12,2.41,0,1.36-1.45,1.83-2.57,1.67-1.63-.23-3.43-.81-3.84-2.61C98,2.16,99.79,2.92,100.72,2.66Z"/><path id="Path_113" data-name="Path 113" class="cls-58" d="M96.87,127.75c2.67-1.94,5.64-3.58,7-6.89a1.55,1.55,0,0,1,.84,1.07c-1.18,2,.09,5.63-3.75,6a1.93,1.93,0,0,1-2.2.11Z"/><path id="Path_114" data-name="Path 114" class="cls-16" d="M120.69,91.48c1.16,3.79,2.81,7.58-.18,11.31C121.11,99,118,95.21,120.69,91.48Z"/><path id="Path_115" data-name="Path 115" class="cls-59" d="M137.77,103.92c-4.11.35-1.15-2.77-2-4a1.5,1.5,0,0,0-.1-1l3-3C138.94,98.6,139.22,101.36,137.77,103.92Z"/><path id="Path_116" data-name="Path 116" class="cls-60" d="M43.88,132.13c-.33-3.53,1.68-6.3,3-9.27,0,2.78.62,5.58-.48,8.31C45.91,132.52,45.5,133.83,43.88,132.13Z"/><path id="Path_117" data-name="Path 117" class="cls-61" d="M85,119.89c1.15,3-2.61,6.11.13,9.1-1.23.81-3.21,1.25-2.6-.73.87-2.86-.68-5.73.72-8.39a1.09,1.09,0,0,1,1.53-.2A1.15,1.15,0,0,1,85,119.89Z"/><path id="Path_118" data-name="Path 118" class="cls-62" d="M62.88,117.93,61,114.84a6.22,6.22,0,0,1,7.83-2c0,1.32-1.77.63-2,1.71a3.27,3.27,0,0,1-2.69,1.64C61.73,115.39,63.6,117.57,62.88,117.93Z"/><path id="Path_119" data-name="Path 119" class="cls-11" d="M56.69,79.83l1.22.09q-.46,1-.93,2c.15,2-.51,4.07,1,6.1,1.94,2.66-.23,2.82-2.21,2.8C56.05,87.17,55.06,83.39,56.69,79.83Z"/><path id="Path_120" data-name="Path 120" class="cls-63" d="M107.83,5.29A5.55,5.55,0,0,1,109.21,5c2,.22,4.42-.93,5.77,1.54.11.21-.6,1.1-1.1,1.38C112.29,8.79,110.82,8.16,107.83,5.29Z"/><path id="Path_121" data-name="Path 121" class="cls-40" d="M94.83,87.82a62.84,62.84,0,0,1-2,14.18C92,97.06,92.34,92.29,94.83,87.82Z"/><path id="Path_122" data-name="Path 122" class="cls-44" d="M14.81,45A8.07,8.07,0,0,1,11,51c-.16.1-.82-.2-.81-.29.15-2.57,1.46-4.69,2.76-6.8C14.08,43.27,14.37,44.25,14.81,45Z"/><path id="Path_123" data-name="Path 123" class="cls-64" d="M68.7,4.54C68.26,6.07,67.37,7,66.2,6.61s-3.14,0-3.09-1.58c0-1.44,1.66-2.19,3.18-2.2A2.8,2.8,0,0,1,68.7,4.54Z"/><path id="Path_124" data-name="Path 124" class="cls-65" d="M140.81,78.91c-2.21-3.39,2.18-6,1.12-9.23,1.1,3.47,1.64,6.93,0,10.4C141.37,79.84,141.48,79,140.81,78.91Z"/><path id="Path_125" data-name="Path 125" class="cls-66" d="M77.74,142.8c1,1.65,2.19,3.29.13,5-.22-1.8-.65-3.29-3-2-.13-2.43-.33-4.86.9-7.12C76.48,140.08,75.05,142.41,77.74,142.8Z"/><path id="Path_126" data-name="Path 126" class="cls-3" d="M62.86,107.65l0-7.76c1.26.94,2.53.12,3.8,0C64.64,102.09,65.21,105.59,62.86,107.65Z"/><path id="Path_127" data-name="Path 127" class="cls-67" d="M108.84,112.89a5.73,5.73,0,0,1,1.07,7.1C105.77,118.19,108.58,115.35,108.84,112.89Z"/><path id="Path_128" data-name="Path 128" class="cls-3" d="M75.81,113.91l0,7c-1,.85.41,2.92-1.63,3.24-1.08-.35-.49-1.65-1.25-2.19,1.66-3,3.15-6,0-9C74.17,112.36,74.88,113.46,75.81,113.91Z"/><path id="Path_129" data-name="Path 129" class="cls-3" d="M64.1,116.19c.82-.68,1.44-1.67,2.69-1.64-.57,2.24,1.89,4.51-.1,6.73a1.76,1.76,0,0,1-1.83-.21C64.72,119.42,65.08,117.7,64.1,116.19Z"/><path id="Path_130" data-name="Path 130" class="cls-68" d="M103.66,136.91c.86,4,.25,7-1.58,7.92C100.14,141.69,104.23,139.77,103.66,136.91Z"/><path id="Path_131" data-name="Path 131" class="cls-19" d="M99.87,65.87c-2.63,3.93-1.76,8.67-3,12.92C95.35,75.19,97.11,67.6,99.87,65.87Z"/><path id="Path_132" data-name="Path 132" class="cls-69" d="M15.09,99.55a5.49,5.49,0,0,0-3.26,1.35c-1.1,0-2.59.4-2.68-1.31s1.29-1.33,2.44-1.31C13,98.3,14.19,98.4,15.09,99.55Z"/><path id="Path_133" data-name="Path 133" class="cls-16" d="M125.8,100.89c-2.75-.66-2.13-2.72-2-4.66.14-2.14.09-4.3.12-6.44C126,93.24,123.87,97.41,125.8,100.89Z"/><path id="Path_134" data-name="Path 134" class="cls-70" d="M143.84,108.73l-6,1.15C138.43,102.15,142,109.8,143.84,108.73Z"/><path id="Path_135" data-name="Path 135" class="cls-71" d="M137,111.7c2.93,1.85,1.67,4.68,1.69,7.22C136.43,116.92,136.28,114.41,137,111.7Z"/><path id="Path_136" data-name="Path 136" class="cls-33" d="M149.81,69.05c-2.2,2.61.33,6.3-2,8.87-1.44-2.64.61-5.31-.08-8C147.75,68.13,148.61,68.21,149.81,69.05Z"/><path id="Path_137" data-name="Path 137" class="cls-39" d="M41.92,31.94c-.41,3.76.78,7.54-.14,11.29C41.18,39.46,39.62,35.68,41.92,31.94Z"/><path id="Path_138" data-name="Path 138" class="cls-29" d="M129.87,124.92l0-12.28C131.22,116.74,131.67,120.84,129.87,124.92Z"/><path id="Path_139" data-name="Path 139" class="cls-3" d="M57.91,100.89c.2,2.67-.55,5.45,1,7.94-1.55.07-3.47,0-2.58-2.15.82-2-.53-4,.52-5.77Z"/><path id="Path_140" data-name="Path 140" class="cls-72" d="M6.14,89.69c1.42,2-.45,2.55-1.57,3.06-1.42.65-2.43-.15-2.83-1.65C2,89.91,2.15,88.54,4,88.91H4A4.14,4.14,0,0,0,6.14,89.69Z"/><path id="Path_141" data-name="Path 141" class="cls-73" d="M72.91,121.93c.93.33.74,1.24,1,1.91a3.2,3.2,0,0,1,1.68,1.94.94.94,0,0,1,.57.1c-2.09,1.59-4.18-.55-6.26,0C70.22,124,72.92,124,72.91,121.93Z"/><path id="Path_142" data-name="Path 142" class="cls-74" d="M57.91,125.83c1.1,1.41-1.29,1.08-1,2.07-1.92-2.61-1.13-5.33-.33-8.05C58.6,121.48,55,124.38,57.91,125.83Z"/><path id="Path_143" data-name="Path 143" class="cls-75" d="M47.7,21.1A1.74,1.74,0,0,1,46.92,23c-.38.57-.77.58-1.16,0-1.54,0-2-.92-1.83-2.24.17-1.49,1.17-1.8,2.48-1.54C47.29,19.54,46.92,20.72,47.7,21.1Z"/><path id="Path_144" data-name="Path 144" class="cls-76" d="M66,90.08a8.27,8.27,0,0,1,.84-.28c.56,1.68.63,3.59,2.14,4.86l0-.09c-.62,1.15-.52,2.78-2.16,3.27-.29-1.65-1.08-3.22-.83-5v-1C65.28,91.28,65.41,90.68,66,90.08Z"/><path id="Path_145" data-name="Path 145" class="cls-47" d="M29.64,28.83c-2.81-1.8-1.61-3.5-.73-5.19.36-.68,1.24-1,1.56-.56C31.9,25.18,29.77,26.66,29.64,28.83Z"/><path id="Path_146" data-name="Path 146" class="cls-44" d="M88.88,12.18c-.47,3.58,1.06,7.34-1,10.79C87.27,19.28,87.94,15.72,88.88,12.18Z"/><path id="Path_147" data-name="Path 147" class="cls-77" d="M36.86,129.87c.3,0,.61,0,.92,0l.29,3c.2,1.83-1.17,1.85-2.37,2C33.76,132.7,35.92,131.43,36.86,129.87Z"/><path id="Path_148" data-name="Path 148" class="cls-78" d="M122.81,74.92c-.07,2,.8,4.19-.86,6,.46-3-1.38-6-.16-9C123,72.62,122.78,73.81,122.81,74.92Z"/><path id="Path_149" data-name="Path 149" class="cls-52" d="M76.92,16.14l-1.25,1.1c-2-2.88-2.62-5,2.24-4.16Z"/><path id="Path_150" data-name="Path 150" class="cls-79" d="M99.69,14.73c-.11,3.43.92,6.93-.67,10.27C98.84,21.55,98.06,18.06,99.69,14.73Z"/><path id="Path_151" data-name="Path 151" class="cls-80" d="M104.78,118.9l-.87-6c1.38,1.77,3.18,3.4,1.94,6C105.51,119.33,105.15,119.37,104.78,118.9Z"/><path id="Path_152" data-name="Path 152" class="cls-81" d="M109.8,120.83c-.07,1.39-.14,2.78-.2,4.17-1.06-.84-2.9-1.08-2.56-3C107.34,120.36,108.8,121,109.8,120.83Z"/><path id="Path_153" data-name="Path 153" class="cls-76" d="M69.9,94.86c1.84,2.83.39,6,1,9C69.12,101,69.32,98,69.9,94.86Z"/><path id="Path_154" data-name="Path 154" class="cls-31" d="M18.82,56.51c0,3.63,0,7.27,0,10.9A17.72,17.72,0,0,1,18.82,56.51Z"/><path id="Path_155" data-name="Path 155" class="cls-82" d="M136.55,62c2.53.5,4.1-2.19,6.54-2C141.69,63.27,139.42,63.66,136.55,62Z"/><path id="Path_156" data-name="Path 156" class="cls-83" d="M35.7,134.91l2.37-2L39,134a1.36,1.36,0,0,1,0,1.89C37.76,137.65,37.76,137.65,35.7,134.91Z"/><path id="Path_157" data-name="Path 157" class="cls-84" d="M39,135.92c0-.63,0-1.26,0-1.88l3-.18c1.88,1.12.48,2.34-.22,3C40.73,137.83,40.41,135,39,135.92Z"/><path id="Path_158" data-name="Path 158" class="cls-38" d="M134.69,74.51l.13,10.36C132.84,81.44,133.55,78,134.69,74.51Z"/><path id="Path_159" data-name="Path 159" class="cls-65" d="M86.8,54.91c2.17,1.77.62,3.51,0,5.26C84.69,58.4,87.05,56.66,86.8,54.91Z"/><path id="Path_160" data-name="Path 160" class="cls-85" d="M47.7,21.1c-.75.06-1.87.47-2.2.12-1-1,1.46-.91.91-2-.16-.82-.4-1.66.52-2.24C48.3,18.14,48.06,19.61,47.7,21.1Z"/><path id="Path_161" data-name="Path 161" class="cls-19" d="M102.05,82.15c.26-2.16.42-4.34,1.71-6.22C102.53,77.82,106.65,81.19,102.05,82.15Z"/><path id="Path_162" data-name="Path 162" class="cls-86" d="M58.05,18c-.46-2.14-.6-4.24.72-6.18,1.28.74.14,2.28,1.06,3.13l-.15,3a1,1,0,0,1-1.39.25A.91.91,0,0,1,58.05,18Z"/><path id="Path_163" data-name="Path 163" class="cls-78" d="M125,82.1c-1.8-2.31,1.07-4.06.74-6.19l1.23-1A15.07,15.07,0,0,1,125,82.1Z"/><path id="Path_164" data-name="Path 164" class="cls-9" d="M19.45,133c3.14.78-.24,5.37,3.43,5.84-1.39,1.85-2.26,1.47-2.64-.65C19.94,136.47,19.71,134.73,19.45,133Z"/><path id="Path_165" data-name="Path 165" class="cls-82" d="M137.82,47c-.54,2.61,1.26,5.59-1.23,7.9C137.29,52.28,135.17,49.24,137.82,47Z"/><path id="Path_166" data-name="Path 166" class="cls-87" d="M165.77,112.9c-1.89,2,.06,5-1.92,7a67.68,67.68,0,0,1,.11-6.83C164.15,111.34,165.06,112,165.77,112.9Z"/><path id="Path_167" data-name="Path 167" class="cls-88" d="M59.82,14.93c-1.24-.74-.62-2.11-1-3.12,0-.76-.56-1.85.65-2A1.33,1.33,0,0,1,61,10.87a1.55,1.55,0,0,1,0,.43A25.43,25.43,0,0,1,59.82,14.93Z"/><path id="Path_168" data-name="Path 168" class="cls-89" d="M91.81,155.06l5.16-2C96.17,156.1,94.7,157.41,91.81,155.06Z"/><path id="Path_169" data-name="Path 169" class="cls-90" d="M163.78,84.91c0-1.92,0-3.86,2-5C166,81.91,166,83.86,163.78,84.91Z"/><path id="Path_170" data-name="Path 170" class="cls-91" d="M55.09,91.72c1.36,2.3.7,4.8.7,7.23C53.34,96.75,55.09,94.15,55.09,91.72Z"/><path id="Path_171" data-name="Path 171" class="cls-38" d="M140.81,78.91c1.5-.67.6.88,1.08,1.16-.62,1.36.6,4.78-3.06,2.73C140,81.75,141.2,80.74,140.81,78.91Z"/><path id="Path_172" data-name="Path 172" class="cls-47" d="M4,88.91,1.74,91.1C.38,90.8-.62,90.34.8,88.87,1.85,88.75,2.93,87.25,4,88.91Z"/><path id="Path_173" data-name="Path 173" class="cls-92" d="M58.05,18h1.64c.36,1.26-.63,2.07-1,3.07-.17.59-.21,1.27-1,1.37C56.5,20.82,57.27,19.4,58.05,18Z"/><path id="Path_174" data-name="Path 174" class="cls-93" d="M57.64,22.41l1-1.37c1.57,1.87,1.32,3.4-1,5.11Z"/><path id="Path_175" data-name="Path 175" class="cls-94" d="M133.64,101.52c.2,1.78.56,3.63-1.78,4.38C133,104.66,129.85,101.68,133.64,101.52Z"/><path id="Path_176" data-name="Path 176" class="cls-95" d="M48.84,59.76c-.17,2.08.89,4.35-.94,6.17C46.54,63.62,47.64,61.68,48.84,59.76Z"/><path id="Path_177" data-name="Path 177" class="cls-39" d="M44.91,46c1.85-1.42,2.18-3.44,2.17-5.58C48.4,45.65,48.22,46.08,44.91,46Z"/><path id="Path_178" data-name="Path 178" class="cls-31" d="M24.86,63.92c-1.87-2.7-.6-5.68-.76-8.53C26,58.09,23.94,61.13,24.86,63.92Z"/><path id="Path_179" data-name="Path 179" class="cls-82" d="M136.66,54.73c.07,1.54.66,3.22-1.08,4.3C135.26,57.43,133.78,55.53,136.66,54.73Z"/><path id="Path_180" data-name="Path 180" class="cls-61" d="M86.82,128.72l1-3.86q.44-.66.87,0c-.36,1.38,1.85,2.62.21,4.06a1.47,1.47,0,0,1-2.07-.15S86.84,128.73,86.82,128.72Z"/><path id="Path_181" data-name="Path 181" class="cls-96" d="M61,130c-2.6-1.69.17-2.89.38-4.32a.42.42,0,0,1,.7.21C62.76,127.51,63.22,129.1,61,130Z"/><path id="Path_182" data-name="Path 182" class="cls-97" d="M78.89,79.93c0-2.79.09-5.58.14-8.37C79.84,74.36,81,77.17,78.89,79.93Z"/><path id="Path_183" data-name="Path 183" class="cls-98" d="M42,101.8c6.81,1.4-1.22,2.76,0,4.15C42,104.56,42,103.18,42,101.8Z"/><path id="Path_184" data-name="Path 184" class="cls-31" d="M139.82,30l-.14,7.33C138.18,34.82,138.85,32.39,139.82,30Z"/><path id="Path_185" data-name="Path 185" class="cls-82" d="M144.81,59c1.28-2,.87-4.27,1.13-6.43C146.41,54.81,148.28,57.35,144.81,59Z"/><path id="Path_186" data-name="Path 186" class="cls-99" d="M45.76,23l1.16,0,1,2.15c-.06.8-.15,2-1.14,1.63C45.06,26.11,46.29,24.23,45.76,23Z"/><path id="Path_187" data-name="Path 187" class="cls-100" d="M65.81,61.92a6.11,6.11,0,0,1,0-7Z"/><path id="Path_188" data-name="Path 188" class="cls-47" d="M6.14,89.69c-1.4,1.62-1.67.1-2.17-.78,1.63-.86.31-3.1,1.87-4Z"/><path id="Path_189" data-name="Path 189" class="cls-62" d="M64.86,121.07l1.83.21c0,.74,0,1.48.07,2.22-.24.89-.54,1.71-1.72,1.6Z"/><path id="Path_190" data-name="Path 190" class="cls-101" d="M14.81,45l-1.9-1c.4-1.12.46-2.46,1.8-3.15C16,42.27,14.76,43.62,14.81,45Z"/><path id="Path_191" data-name="Path 191" class="cls-3" d="M65,125.1l1.72-1.6a2.51,2.51,0,0,0,2.5,2.51h0C67.61,127,65.86,128.23,65,125.1Z"/><path id="Path_192" data-name="Path 192" class="cls-102" d="M46,12.21c0,.9,0,1.81-.07,2.72-1.3-.35-2.85-.88-2.55-2.39C43.63,11.46,45.14,12.37,46,12.21Z"/><path id="Path_193" data-name="Path 193" class="cls-65" d="M85,119.89l-1.75,0c.21-1.44-1.41-3.1.51-4.33C83.27,117.23,85.84,118.07,85,119.89Z"/><path id="Path_194" data-name="Path 194" class="cls-66" d="M77.87,147.83c-.25,2,1,3.9.23,5.9C76.18,151.84,76.4,149.86,77.87,147.83Z"/><path id="Path_195" data-name="Path 195" class="cls-103" d="M73.21,151.9c-.13-1-.26-2.05-.38-3.08l1.14-1c1.6.7,1.74,1.73.7,3A1.32,1.32,0,0,1,73.21,151.9Z"/><path id="Path_196" data-name="Path 196" class="cls-14" d="M89.76,33l-3.89,1C86.34,30.39,88,31.41,89.76,33Z"/><path id="Path_197" data-name="Path 197" class="cls-31" d="M139.71,37.7c0,1.78.75,3.69-.81,5.24A4.87,4.87,0,0,1,139.71,37.7Z"/><path id="Path_198" data-name="Path 198" class="cls-100" d="M61.82,64.9l3.47.18c-1.2,1.2-2.54,2.18-4.12.81C60.11,65,61.46,65.16,61.82,64.9Z"/><path id="Path_199" data-name="Path 199" class="cls-104" d="M51.78,44.71c.43,1.44-.32,3.21,1.24,4.32C50.67,49,50.52,48.43,51.78,44.71Z"/><path id="Path_200" data-name="Path 200" class="cls-29" d="M128.82,130.63c.33-1.92-.84-4.12,1.06-5.75C129.18,126.73,131.07,129.07,128.82,130.63Z"/><path id="Path_201" data-name="Path 201" class="cls-79" d="M99,25.91c1.61.05,2.41-1.48,3.75-2C102.58,26.65,101.55,27.73,99,25.91Z"/><path id="Path_202" data-name="Path 202" class="cls-95" d="M49.84,53.77c-.06,1.71.62,3.52-.6,5.1A4.84,4.84,0,0,1,49.84,53.77Z"/><path id="Path_203" data-name="Path 203" class="cls-105" d="M11.76,101.81,11.69,104c-.87-.17-2.23.16-2.2-1.13S10.92,102,11.76,101.81Z"/><path id="Path_204" data-name="Path 204" class="cls-106" d="M62.11,125.87a4,4,0,0,1-.7-.21l-.66-1.8,1-1C63.14,123.73,63.22,124.74,62.11,125.87Z"/><path id="Path_205" data-name="Path 205" class="cls-46" d="M99.89,60.93l4.88-1C103.55,62.25,102,63.13,99.89,60.93Z"/><path id="Path_206" data-name="Path 206" class="cls-107" d="M86.82,128.72l2.12.2c-.35.91-.62,1.91-1.91,1.85-1-.05-1.38-.68-1.39-1.6Z"/><path id="Path_207" data-name="Path 207" class="cls-65" d="M87.89,64.79l3-1.86c.24.74.85,2,.67,2.14C90.35,65.9,89.11,65.08,87.89,64.79Z"/><path id="Path_208" data-name="Path 208" class="cls-108" d="M150.91,63.86l4.84,0C154.12,66.18,152.51,65.5,150.91,63.86Z"/><path id="Path_209" data-name="Path 209" class="cls-29" d="M125.82,118.85c-.88,1.57,2.22,3.47-.4,4.89C125.28,122.09,124.35,120.37,125.82,118.85Z"/><path id="Path_210" data-name="Path 210" class="cls-109" d="M98.92,149.85c-.11-2.13-.54-4.3.79-6.25C99.65,145.71,100.77,148,98.92,149.85Z"/><path id="Path_211" data-name="Path 211" class="cls-23" d="M66,92.88a6.74,6.74,0,0,1,.83,5A2.49,2.49,0,0,0,66,98C66.61,96.31,64.06,94.58,66,92.88Z"/><path id="Path_212" data-name="Path 212" class="cls-65" d="M88.74,124.86h-.88c.3-2-1.06-4.32,1.21-5.92Z"/><path id="Path_213" data-name="Path 213" class="cls-67" d="M104.78,118.9l1.07,0c0,1.16.15,2.39-1.16,3.06l-.84-1.07Z"/><path id="Path_214" data-name="Path 214" class="cls-110" d="M15,96.59c.8-.89,1.36-2.54,2.93-.9C17,96,16.58,98.16,15,96.59Z"/><path id="Path_215" data-name="Path 215" class="cls-110" d="M18.94,95.84l.95-3.68C21.09,93.78,21.09,95.09,18.94,95.84Z"/><path id="Path_216" data-name="Path 216" class="cls-65" d="M135.7,98.89c.6.28.84.59.1,1a2.2,2.2,0,0,0-2.16,1.29c-.91-.47-1-1.33-1-2.2Z"/><path id="Path_217" data-name="Path 217" class="cls-16" d="M124,89.82c-1.29.11-2.66,0-3.32,1.5-.88-.47-1.19-1.3-.4-1.86C121.44,88.59,122.85,88.24,124,89.82Z"/><path id="Path_218" data-name="Path 218" class="cls-111" d="M105.82,34.86c-.18,1.71.68,3.6-.89,5.08C105.13,38.23,104.62,36.4,105.82,34.86Z"/><path id="Path_219" data-name="Path 219" class="cls-111" d="M108.94,43.51c.16-1.85-.76-3.86.78-5.52C109.78,39.87,110.22,41.82,108.94,43.51Z"/><path id="Path_220" data-name="Path 220" class="cls-46" d="M100.86,50l-2.14,3.29C97.1,50.64,98.48,50,100.86,50Z"/><path id="Path_221" data-name="Path 221" class="cls-26" d="M77.73,9.05,82.91,9C81.2,10.89,79.47,10.37,77.73,9.05Z"/><path id="Path_222" data-name="Path 222" class="cls-112" d="M146.87,88a3.49,3.49,0,0,1-3.12,1.88C142.87,86,146,88.93,146.87,88Z"/><path id="Path_223" data-name="Path 223" class="cls-113" d="M98.74,128.08l2.2-.11c.14.65.91,1.55-.4,1.74C99.44,129.87,98.81,129.21,98.74,128.08Z"/><path id="Path_224" data-name="Path 224" class="cls-95" d="M52.08,67.39c0-1.84-.83-3.8.73-5.44C52.76,63.79,53.72,65.76,52.08,67.39Z"/><path id="Path_225" data-name="Path 225" class="cls-66" d="M73.21,151.9l1.46-1.08A1.73,1.73,0,0,1,75.76,153s0,.05,0,.07C75,152.51,73.47,153.55,73.21,151.9Z"/><path id="Path_226" data-name="Path 226" class="cls-114" d="M143.72,149.78c.82-.95,1.48-2.11,3-2.1C146.62,149.68,145.35,150,143.72,149.78Z"/><path id="Path_227" data-name="Path 227" class="cls-68" d="M107.93,145.07c.13-1.76-.73-3.69.86-5.21C108.66,141.62,109.33,143.52,107.93,145.07Z"/><path id="Path_228" data-name="Path 228" class="cls-115" d="M149.81,69.05a2.15,2.15,0,0,0-2.11.9c-.73-3.77,2.09-1.41,3.26-1.9Z"/><path id="Path_229" data-name="Path 229" class="cls-116" d="M80.75,139.65c0,.86.13,1.86-1.15,2-.2-.94-2.15-.59-1.6-1.87C78.65,138.28,79.84,140.17,80.75,139.65Z"/><path id="Path_230" data-name="Path 230" class="cls-19" d="M98.62,80c1.32.42,1.86,2.12,3.45,2.1C100,83.59,99.65,83.4,98.62,80Z"/><path id="Path_231" data-name="Path 231" class="cls-117" d="M78.35,97.84c-2.11-.16-4,.88-5-.94-.7-1.26,1.5-2.17,2.69-1.06C76.62,96.36,77.22,96.85,78.35,97.84Z"/><path id="Path_232" data-name="Path 232" class="cls-23" d="M66,90.08l0,1.82c-2,.3-4.24,1-3.27-2.56.22-.8,1.08-1.45-.15-2.48-2.51-2.08-.45-2.55,1.33-3C66.68,85.24,64.87,88.17,66,90.08Z"/><path id="Path_233" data-name="Path 233" class="cls-14" d="M89.06,43.09c-2.72-.39-1-2.31-1.5-4,1.9,1.21,1,2.83,1.45,4Z"/><path id="Path_234" data-name="Path 234" class="cls-111" d="M75.6,125.78l-1.68-1.94,1.87-3C75.73,122.51,75.66,124.14,75.6,125.78Z"/></g></g></g></svg>