<svg xmlns="http://www.w3.org/2000/svg" viewBox="0 0 396.2 397.8"><defs><style>.cls-1{fill:#bec4c4;}</style></defs><g id="Layer_2" data-name="Layer 2"><g id="Layer_1-2" data-name="Layer 1"><g id="Layer_2-2" data-name="Layer 2"><g id="Layer_1-2-2" data-name="Layer 1-2"><path class="cls-1" d="M277.8,207.7l118.4-5.4c-.3-2.2-.5-3.9-.7-5.8L275,202v-.8l94.5-12.6c-.3-2.2-.6-3.8-.9-5.7l-90.4,12-.1-.8,105-23.5c-.5-2.1-.9-3.6-1.4-5.6L275.5,188.7l-.2-.8L379.1,155c-.8-2.2-1.4-3.8-2-5.5l-99.7,31.6L277,180l93-38.7-2.4-5.3-92.9,38.6-.4-.8L381.1,118l-2.8-5.1L269.5,169.7l-.6-1.1,90.2-57.8c-1.2-1.8-2.1-3.2-3.3-4.8L266,163.4l-.5-.8L350,97.5l-3.6-4.6-85.5,65.8-.5-.7q39.6-36.45,79.4-73l-4-4.2L256.2,154l-.6-.6,72.9-79.9-4.3-4-70.4,77.1-.9-.7,63.4-83.1-4.7-3.5-65,85-.8-.5q28.65-45.15,57.4-90.5l-5-3-58.5,92.2-.8-.5c14.4-27.8,28.8-55.5,43.3-83.5l-5.1-2.8-41.1,79-1-.5q19.65-48,39.6-96.2l-5.4-2.1q-20.7,49.95-41,99.4l-.9-.3c10.7-34.3,21.4-68.5,32.1-102.9l-5.6-1.7c-10.7,34.2-21.3,68-31.9,101.9l-1-.3c7.6-34.7,15.2-69.3,22.9-104.3l-5.7-1c-7.8,35.7-15.6,70.9-23.3,106.2l-.8-.2c4.6-35.8,9.3-71.7,14-108.1l-5.7-.5c-4.9,37.4-9.7,74.5-14.5,111.6h-.5l4.5-112.6-5.8-.3c-1.6,37.6-3.1,74.7-4.7,111.9h-.5c-2-44.8-4-89.5-6-134.7L189,.3q2.85,65.55,5.8,130.4l-.8.1c-4.7-35.5-9.4-71-14.1-106.8l-5.8.6c4.8,36.6,9.6,72.8,14.3,109l-.8.1L163.9,26.6l-5.7,1.3L181.5,133l-.9.2Q164.4,82.05,148.2,30.5l-5.5,1.8c10.9,34.7,21.7,69,32.6,103.3l-.8.3L132.9,35.7l-5.3,2.4,40.7,98.3-.8.4-45-86.7-5.1,2.8,44.9,86.6-1,.5L103.9,50.1l-4.8,3.3,57.6,90.5-.8.5L90.5,59.2,86,62.9q32.4,42.3,64.6,84.3l-.8.6-60.5-66-4.2,4,60.3,65.9-.8.8L66.2,80.8l-3.7,4.5q38.85,35.55,77.4,70.9l-.7.9-83.5-64-3.6,4.6,84.1,64.5-.6.8L39,101.6l-3.1,5,95.7,60.9-.5.8L43.6,122.6l-2.5,5.3,89.4,46.7c-.1.3-.3.7-.4,1L30.7,134.5c-.8,2-1.4,3.6-2.1,5.4l98.2,40.7-.4,1L25.1,149.8l-1.7,5.6,103.2,32.5-.2.8L20.8,165.4,19.3,171l108.2,23.9-.1.8L17.5,181.5c-.3,2.2-.5,3.9-.7,5.8l107.6,14-.1.8L21,197.7v5.8l107.4,4.7v.5L24.9,213.4c.4,2.2.7,3.8,1,5.7l95.6-4.2a2.19,2.19,0,0,1-2,1.3c-19,2.6-37.9,5.1-56.9,7.7Q31.4,228.1,0,232.1v4.4c1,.3,2.1,1.1,3,1,4.8-.5,9.6-1.2,14.4-1.9,30.5-4.1,61-8.1,91.5-12.2,5.7-.8,11.4-1.4,17.1-2.1l.1.8L19.4,245.9c.6,2.2,1,3.8,1.5,5.6l104.7-23.4.2.9L23.5,261.6c.7,2.1,1.2,3.7,1.8,5.5l100.6-31.9.4,1L24.2,278.7l2.3,5.4,104.9-43.6.5,1L41.5,288.8c1,1.9,1.8,3.4,2.8,5.1l85.3-44.5.5.9L43.4,305.8l3.2,4.9,89-56.9.6.9L52.5,319.2c1.3,1.7,2.3,3.1,3.5,4.6l84-64.7.7.8L63,331.5l3.3,4.9,76.4-70.2.9.9L73.9,343.5l4.4,3.8,71.4-78.1.8.7L86.2,354l4.7,3.5L155,273.6l.9.6L99.4,363.4l4.9,3.2q28.2-44.4,56.1-88.3l.8.5L100.7,395.4l5.3,2.4c21.2-40.9,42.2-81.2,63.2-121.7l.8.4q-21,51-42.1,102.3l5.4,2.2q20.7-50.25,41.2-100l.8.3L143,384.6l5.6,1.5c10.8-34.4,21.4-68.3,32-102.1l.9.3c-7.6,34.8-15.3,69.6-22.9,104.7l5.7,1.2c7.9-35.8,15.7-71.3,23.5-106.8l.8.1q-7,54.15-14,108.4l5.7.9q6.9-53.25,13.8-106l1,.1c-1.4,35.5-2.9,71-4.4,106.8h5.8c1.6-37,3.1-73.8,4.6-110.6h.5c1.4,30.7,2.7,61.3,4.1,92h5.8c-1.3-29.7-2.6-59.1-3.9-88.4h1q7.05,52.95,14,106.2l5.7-.9q-7.2-54.45-14.3-108.5l.8-.1c7.9,35.5,15.8,71,23.7,106.8l5.7-1L221,284.1l.9-.2,32.3,102.3,5.5-1.8c-10.7-34-21.3-67.6-31.8-101.1l1-.3q20.25,48.75,40.6,97.9l5.3-2.3c-13.4-32.4-26.6-64.4-39.9-96.5l1-.5,53.3,102.5,5.1-2.8c-18.4-35.5-36.6-70.5-54.8-105.6l.8-.5,58.1,91,4.8-3.3-56.7-89.1.9-.6,64.4,83.9,4.6-3.5-63.7-83.1.8-.7,84,91.7,4.4-3.8c-28.8-31.5-57.1-62.5-85.5-93.4l.8-.8,78.9,72.2,3.9-4.4q-39.6-36.3-78.9-72.2l.6-.7,85,65.1c1.3-1.8,2.3-3.2,3.4-4.7l-84.6-64.9.6-.8L350.9,307l3.2-4.9-82.6-52.5.5-.9L374.2,302l2.7-5.2L271.3,241.7l.4-.9L371.5,282l2.2-5.4-97.4-40.3.4-1,100.7,31.6c.6-2.2,1.1-3.8,1.6-5.6l-101.7-32,.2-1,104.1,23c.5-2,1-3.6,1.5-5.6L277,222.1l.2-.9,107.6,13.9c.4-2.2.6-3.7.9-5.7L274.9,214.9v-.6l117.6,5v-5.8l-114.8-4.9Zm38,6.6-74.3-3.2c0,.4-.1.8-.1,1.2l73.2,9.7-.3,2.2-73.2-9.5c-.1.4-.1.8-.2,1.2l72.1,16-.1,1.3a14.47,14.47,0,0,1-3.6.1q-34.5-7.5-68.9-15.2l-.3,1.2,70.5,22.3c-.2.6-.4,1.3-.6,1.9-23.6-6.9-47-14.8-70.8-21.5a1.42,1.42,0,0,0-.2.6l68.2,28.3-.8,2-68.3-28.1a4.88,4.88,0,0,0-.3.7c21.6,11.9,43.6,23,65.3,34.6l-1,1.8-65.6-34-.6,1.1,62.2,39.6c-.2.5-.4.9-.6,1.4a17.06,17.06,0,0,1-3.9-1.7c-19.7-12.5-39.3-24.9-59-37.5l-.7,1,58.6,45-1.3,1.7-58.7-44.9-.8.9,54.5,50-1.5,1.6-54.6-49.9-.9.9,49.9,54.6-1.6,1.5c-16.7-18.2-33.4-36.3-50.1-54.5-.3.3-.6.5-.9.8l45,58.8-1.7,1.3-45.1-58.7-1,.7c13.2,20.8,26.5,41.6,39.7,62.4l-1.1,1a28.91,28.91,0,0,1-2.9-3.2c-12.4-19.3-24.7-38.7-37.1-58.1a5.55,5.55,0,0,0-.6-.8c-.3.2-.7.4-1,.6l34.2,65.7-1.9,1-34.3-65.7-1.1.5,28.3,68.5-2,.8-28.5-68.4c-.4.1-.7.3-1.1.4,7.4,23.6,14.8,47.1,22.2,70.7l-2,.6L212.1,247l-1.1.3,15.9,72.3-2.1.5-16.1-72.2-1.1.2q4.8,36.6,9.6,73.3l-2.2.3-9.8-73.3-1.1.1q1.5,36.9,3.1,73.8l-2.1.1-3.4-73.8h-1c-1.1,24.6-2.1,49.2-3.2,73.9l-2.2-.1,2.9-73.9c-.4,0-.7-.1-1.1-.1q-4.8,36.75-9.6,73.3l-2-.2c2.6-24.5,6.3-48.9,8.7-73.5l-.6-.1c-5.3,24.1-10.7,48.3-16,72.4l-2.1-.5,15.8-72.4c-.4-.1-.8-.2-1.1-.3L168,317.9l-1.7-.5c2.9-12.7,7.5-24.9,11.3-37.4,3.4-11.2,7-22.5,9.9-33.9l-.6-.2-28.4,68.6-2-.8L184.7,245l-1-.5-34.3,65.9-1.9-1,34.1-66-1-.6L141,305.3l-1.4-.6a32.94,32.94,0,0,1,1.7-3.9q15.45-24.45,31-48.9a102.76,102.76,0,0,0,6.2-10.7l-.6-.4c-15.1,19.6-30.1,39.3-45.2,58.9l-1.7-1.3,45-59a6.47,6.47,0,0,1-.9-.8L125,293.4l-1.5-1.4c16.4-18.6,33.4-36.6,49.5-55.4l-.4-.4-54.8,50.2-1.4-1.6L171,234.4l-.8-.9q-29.4,22.65-58.8,45.2a5.72,5.72,0,0,1-.7-.8.52.52,0,0,1-.2-.4,2,2,0,0,1,.1-.8,7.64,7.64,0,0,1,.9-.9c19.1-14.7,38.2-29.4,56.8-44.7l-.3-.4-62.4,39.9-.7-.7a.76.76,0,0,1-.2-.4c.1-.4.1-1,.4-1.1,20.6-13.2,41.1-26.4,61.4-40.2l-.2-.4-65.8,34.3-1-1.6c5.3-3.7,11.3-6.1,17-9.2,5.9-3.2,12-6.3,18-9.4l18-9.4c4.2-2.2,8.5-4.5,12.6-6.9-.1-.3-.3-.6-.4-.9L96.1,253.2l-.8-2,68.6-28.6c-.1-.4-.3-.7-.4-1.1L92.6,243.9l-.7-2.1,70.8-22.5c-.1-.2-.1-.4-.2-.6-24.4,4.7-48.5,10.6-72.7,15.5l-.4-2,72.5-16.3c-.1-.4-.1-.7-.2-1.1L88,224.5l-.3-2.1,73.6-9.9c0-.4-.1-.7-.1-1.1l-74.1,3.3-.1-2.2,74.1-3.4V208l-74.2-3.3.1-2c24.7.2,49.5,2.2,74.2,2.2v-.6l-73.5-9.6c.1-.8.3-1.5.4-2.3,13.8,2,27.8,3.8,42,5.6,10.6,1.3,21.1,2.5,31.5,3.7,0-.3.1-.5.1-.8L89.2,184.7l.5-2.1,72.6,16c.1-.4.2-.7.3-1.1L92,175.1l.6-1.9c23.7,6.9,47.2,14.8,71,21.5.1-.2.1-.4.2-.6L95.2,165.6a16.67,16.67,0,0,0,.8-2l68.6,28.3c.2-.4.3-.7.5-1.1L99.5,156.6l.4-1.4a19,19,0,0,1,3.9,1.1q20.25,10.35,40.3,20.9c7.4,3.8,14.7,7.6,22.3,11.1a2.09,2.09,0,0,1,.4-.6l-62.5-39.9,1.1-1.7c21.1,12.9,41.7,26.5,63.1,39l.2-.4-58.8-45.1.6-1.2a9.88,9.88,0,0,1,3.3,1.5c15.1,11.5,30.2,23.1,45.3,34.6a100.5,100.5,0,0,0,11.4,7.9l.4-.4-54.6-50.1,1.4-1.6,54.7,49.9.8-.8-50-54.6,1.6-1.4,50.1,54.5.9-.8-45.1-58.9,1.7-1.3,45.2,58.7a8.65,8.65,0,0,1,1-.7l-39.7-62.5,1.8-1.1,39.9,62.4,1-.6-34.1-65.8,1.9-1L183.6,172l1.1-.5c-9.4-22.7-18.8-45.5-28.2-68.2l1.2-.8A16.28,16.28,0,0,1,160,106q11.25,26.85,22.3,53.8c1.5,3.6,3,7.3,4.8,10.8l.8-.3c-7.4-23.5-14.7-47-22.1-70.5l2-.6c7.4,23.5,14.9,47,22.3,70.4l1.1-.3q-7.95-36.15-15.9-72.2l2.1-.5q7.95,36,16.1,72.2l1.1-.2c-3.2-24.5-6.3-49-9.5-73.4l2.2-.3c3.2,24.5,6.5,48.9,9.7,73.3l1.1-.1L195,94.3l2.1-.1c1.1,24.6,2.3,49.2,3.4,73.8h1c.3-7.1.6-14.2.9-21.4.4-8.8.5-17.7,1.2-26.5s-.1-17.5,1.4-26l1.9.1-3,73.8a3.75,3.75,0,0,1,1.1.1l9.6-73.2,2.4.2c-3.1,24.4-6.3,48.9-9.4,73.3l1.1.2c5.3-24,10.7-48,16-72.1l2.1.5c-5.3,24-10.6,48.1-15.9,72.1l1.1.3L234.2,99l2.1.7c-7.3,23.5-14.7,47-22,70.4l.9.3c9.7-22.6,19.4-45.1,29.1-67.7,14.6-33.8.5.2,1.3.5-9.3,22.7-18.7,45.5-28,68.2.4.2.7.3,1.1.5,11.3-21.8,22.7-43.7,34-65.5l1.9.9c-11,22-22.6,43.7-33.2,65.9.2.1.3.2.5.3,13.2-20.7,26.4-41.5,39.5-62.2l1.8,1.1c-13.1,20.8-26.3,41.6-39.4,62.3l1,.7,44.9-58.6,1.7,1.3c-14.9,19.6-29.9,39.2-44.8,58.7l.9.8q24.9-27.15,49.6-54.3l1.2.7a14.09,14.09,0,0,1-1.7,3.2q-19.2,21.15-38.4,42.1c-3,3.3-6,6.6-8.9,10.1l.8.8,54.3-49.9.8.8a.76.76,0,0,1,.2.4,3.4,3.4,0,0,1-.7,1.5c-17.7,16.3-35.4,32.6-52.7,49.3l.4.5,58.4-44.9,1.3,1.7L234,184.5a8.65,8.65,0,0,1,.7,1l.6-.4q28.95-18.6,58.1-37.1a28.26,28.26,0,0,1,4-1.7l.6,1.4-62,39.7c.2.4.4.7.6,1.1L302,154.4a17.38,17.38,0,0,0,1,1.9c-21.8,11.4-43.5,22.8-65.3,34.2a5.36,5.36,0,0,1,.5,1.1l68.2-28.3.8,2-68.1,28.4c.1.4.3.8.4,1.1l70.4-22.2.7,2.1-70.3,22.4c.1.4.2.8.3,1.1l72-16,.5,2.1-72,16.2c.1.4.1.8.2,1.1l73.1-9.6c.1.7.2,1.4.3,2-24.3,3.7-48.7,6.5-73,10.5a2,2,0,0,0,.1.7l73.8-3.3c.1.6.1,1.3.2,1.9-6.3,1.4-12.9.6-19.3,1.2-6.7.6-13.5.7-20.3,1l-20.3.9c-4.6.2-9.3.4-13.9.8v.9c24.4,1.2,48.9,2.5,73.3,3.7C315.1,212.4,315.3,213.1,315.8,214.3Z"/></g></g></g></g></svg>